<svg width="40" height="42" viewBox="0 0 14 18" fill="none" xmlns="http://www.w3.org/2000/svg">
<path d="M12 4.00001H10.3333C10.3333 2.15834 8.84166 0.666672 6.99999 0.666672C5.15833 0.666672 3.66666 2.15834 3.66666 4.00001H1.99999C1.08333 4.00001 0.333328 4.75001 0.333328 5.66667V15.6667C0.333328 16.5833 1.08333 17.3333 1.99999 17.3333H12C12.9167 17.3333 13.6667 16.5833 13.6667 15.6667V5.66667C13.6667 4.75001 12.9167 4.00001 12 4.00001ZM5.33333 7.33334C5.33333 7.79167 4.95833 8.16667 4.49999 8.16667C4.04166 8.16667 3.66666 7.79167 3.66666 7.33334V5.66667H5.33333V7.33334ZM6.99999 2.33334C7.91666 2.33334 8.66666 3.08334 8.66666 4.00001H5.33333C5.33333 3.08334 6.08333 2.33334 6.99999 2.33334ZM10.3333 7.33334C10.3333 7.79167 9.95833 8.16667 9.49999 8.16667C9.04166 8.16667 8.66666 7.79167 8.66666 7.33334V5.66667H10.3333V7.33334Z" fill="white"/>
<path d="M12 4.00001H10.3333C10.3333 2.15834 8.84166 0.666672 6.99999 0.666672C5.15833 0.666672 3.66666 2.15834 3.66666 4.00001H1.99999C1.08333 4.00001 0.333328 4.75001 0.333328 5.66667V15.6667C0.333328 16.5833 1.08333 17.3333 1.99999 17.3333H12C12.9167 17.3333 13.6667 16.5833 13.6667 15.6667V5.66667C13.6667 4.75001 12.9167 4.00001 12 4.00001ZM5.33333 7.33334C5.33333 7.79167 4.95833 8.16667 4.49999 8.16667C4.04166 8.16667 3.66666 7.79167 3.66666 7.33334V5.66667H5.33333V7.33334ZM6.99999 2.33334C7.91666 2.33334 8.66666 3.08334 8.66666 4.00001H5.33333C5.33333 3.08334 6.08333 2.33334 6.99999 2.33334ZM10.3333 7.33334C10.3333 7.79167 9.95833 8.16667 9.49999 8.16667C9.04166 8.16667 8.66666 7.79167 8.66666 7.33334V5.66667H10.3333V7.33334Z" fill="#333333" fill-opacity="0.6"/>
</svg>
